<?xml version="1.0" encoding="UTF-8"?>
<svg width="64" height="64" viewBox="0 0 64 64" xmlns="http://www.w3.org/2000/svg">
  <!-- Simple favicon version of StayBoost icon -->
  <circle cx="32" cy="32" r="30" fill="#4F46E5" stroke="#374151" stroke-width="2"/>
  
  <!-- Browser window simplified -->
  <rect x="12" y="16" width="40" height="30" rx="3" fill="#374151"/>
  <rect x="12" y="16" width="40" height="6" rx="3" fill="#6B7280"/>
  <rect x="12" y="20" width="40" height="26" fill="#F9FAFB"/>
  
  <!-- Exit arrow -->
  <path d="M 25 24 L 22 21 L 24 21 L 24 18 L 28 18 L 28 21 L 30 21 Z" fill="#4F46E5"/>
  
  <!-- Popup -->
  <rect x="20" y="32" width="24" height="15" rx="2" fill="#FFFFFF" stroke="#4F46E5" stroke-width="1"/>
  
  <!-- Popup content -->
  <rect x="22" y="35" width="15" height="2" rx="1" fill="#374151"/>
  <rect x="22" y="38" width="20" height="1" rx="0.5" fill="#6B7280"/>
  <rect x="22" y="40" width="18" height="1" rx="0.5" fill="#6B7280"/>
  
  <!-- Button -->
  <rect x="22" y="43" width="8" height="3" rx="1.5" fill="#4F46E5"/>
  
  <!-- Discount -->
  <text x="50" y="28" font-family="Arial, sans-serif" font-size="8" font-weight="bold" fill="#059669">%</text>
</svg>
